<?xml version="1.0" encoding="UTF-8"?> <svg xmlns="http://www.w3.org/2000/svg" id="Слой_1" data-name="Слой 1" viewBox="0 0 965.81 759.97"><defs><style>.cls-1{fill:#fff;}.cls-2{fill:#fbb03b;}.cls-3{fill:none;stroke:#000;stroke-miterlimit:10;stroke-width:4px;}</style></defs><rect x="0.5" y="224.27" width="818" height="498"></rect><path d="M1294,422V919H477V422h817m1-1H476V920h819V421Z" transform="translate(-476 -197.23)"></path><path d="M885.24,956.7A47.52,47.52,0,1,1,904,952.81,47.47,47.47,0,0,1,885.24,956.7Z" transform="translate(-476 -197.23)"></path><path d="M885.2,861.18v1h0A47,47,0,1,1,866.61,866a47,47,0,0,1,18.59-3.85v-1m0,0a48,48,0,1,0,44.1,29,47.75,47.75,0,0,0-44.1-29Z" transform="translate(-476 -197.23)"></path><path class="cls-1" d="M883.5,898.44c-58.58-20.91-117.94-31.52-176.5-31.52s-117.92,10.61-176.5,31.52V392.72c58.58-22.21,118-33.47,176.5-33.47s117.92,11.26,176.5,33.47Z" transform="translate(-476 -197.23)"></path><path d="M707,361.75c57.71,0,116.23,11,174,32.7V894.91c-57.76-20.24-116.26-30.49-174-30.49s-116.24,10.25-174,30.49V394.45c57.77-21.7,116.29-32.7,174-32.7m0-5q-89.5,0-179,34.25V902q89.5-32.58,179-32.58T886,902V391q-89.5-34.26-179-34.25Z" transform="translate(-476 -197.23)"></path><path class="cls-1" d="M1236.5,898.14c-58.58-20.91-117.94-31.51-176.5-31.51s-117.92,10.6-176.5,31.51V392.42c58.58-22.21,118-33.47,176.5-33.47s117.92,11.26,176.5,33.47Z" transform="translate(-476 -197.23)"></path><path d="M1060,361.45c57.71,0,116.23,11,174,32.7V894.61c-57.76-20.23-116.26-30.49-174-30.49s-116.24,10.26-174,30.49V394.15c57.77-21.7,116.29-32.7,174-32.7m0-5q-89.5,0-179,34.25v511q89.5-32.58,179-32.58t179,32.58v-511q-89.51-34.24-179-34.25Z" transform="translate(-476 -197.23)"></path><path d="M565.5,452.5a323.26,323.26,0,0,1,67.83-25.64c.73-.2,1.46-.42,2.2-.6l2.22-.49,4.45-1,8.91-1.9c.75-.15,1.49-.33,2.24-.45l2.25-.35,4.51-.7,9-1.4c1.5-.27,3-.38,4.53-.52l4.55-.42,9.09-.82c6.07-.33,12.16-.45,18.25-.68,6.08.13,12.17.35,18.25.54,6.06.56,12.14,1,18.18,1.66l9,1.39,4.51.69,2.26.35,1.12.17,1.12.24c5.94,1.28,11.91,2.46,17.8,3.93a306.82,306.82,0,0,1,67.7,26,425.7,425.7,0,0,0-68.76-21.42c-1.45-.38-2.94-.59-4.41-.87l-4.42-.79-8.82-1.65-1.1-.21-1.11-.14-2.22-.29-4.45-.58-8.89-1.15-17.86-1.46-17.9-.39c-6,.18-11.94.25-17.91.52-5.95.53-11.91.93-17.85,1.55l-8.89,1.17-4.45.58-2.22.29c-.74.1-1.47.27-2.21.4l-8.82,1.64-4.42.8-2.21.39-2.19.51A455.2,455.2,0,0,0,565.5,452.5Z" transform="translate(-476 -197.23)"></path><path d="M566.82,530.46a323.18,323.18,0,0,1,67.82-25.64c.74-.2,1.47-.42,2.2-.6l2.23-.49,4.44-1,8.92-1.9c.74-.14,1.48-.33,2.23-.45l2.26-.35,4.5-.7,9-1.4c1.5-.27,3-.38,4.53-.52l4.54-.42,9.1-.82c6.07-.32,12.16-.45,18.24-.68,6.09.13,12.18.35,18.26.54,6.06.56,12.13,1,18.18,1.66l9,1.39,4.51.69,2.25.35,1.13.17,1.11.24c6,1.28,11.91,2.46,17.81,3.93a307.7,307.7,0,0,1,67.7,26A425.5,425.5,0,0,0,778.05,509c-1.45-.38-2.93-.59-4.4-.87l-4.42-.79-8.82-1.65-1.1-.21-1.11-.14-2.23-.29-4.44-.58-8.89-1.15-17.86-1.45-17.91-.4c-6,.18-11.94.25-17.9.52-6,.53-11.91.94-17.86,1.55l-8.89,1.17-4.44.58-2.23.29c-.74.1-1.47.27-2.2.4l-8.82,1.64-4.42.8-2.22.39c-.73.16-1.45.34-2.18.51A456.35,456.35,0,0,0,566.82,530.46Z" transform="translate(-476 -197.23)"></path><path d="M565.82,608.46a323.18,323.18,0,0,1,67.82-25.64c.74-.2,1.47-.42,2.2-.6l2.23-.49,4.44-1,8.92-1.9c.74-.14,1.48-.33,2.23-.45l2.26-.35,4.5-.7,9-1.4c1.5-.27,3-.38,4.53-.52l4.54-.42,9.1-.82c6.07-.32,12.16-.45,18.24-.68,6.09.13,12.18.35,18.26.54,6.06.56,12.13,1,18.18,1.66l9,1.39,4.51.69,2.25.35,1.13.17,1.11.24c6,1.28,11.91,2.46,17.81,3.93a307.7,307.7,0,0,1,67.7,26A425.5,425.5,0,0,0,777.05,587c-1.45-.38-2.93-.59-4.4-.87l-4.42-.79-8.82-1.65-1.1-.21-1.11-.14-2.23-.29-4.44-.58-8.89-1.15-17.86-1.45-17.91-.4c-6,.18-11.94.25-17.9.52-6,.53-11.91.94-17.86,1.55l-8.89,1.17-4.44.58-2.23.29c-.74.1-1.47.27-2.2.4l-8.82,1.64-4.42.8-2.22.39c-.73.16-1.45.34-2.18.51A456.35,456.35,0,0,0,565.82,608.46Z" transform="translate(-476 -197.23)"></path><path d="M566.82,686.46a323.18,323.18,0,0,1,67.82-25.64c.74-.2,1.47-.42,2.2-.6l2.23-.49,4.44-1,8.92-1.9c.74-.14,1.48-.33,2.23-.45l2.26-.35,4.5-.7,9-1.4c1.5-.27,3-.38,4.53-.52l4.54-.42,9.1-.82c6.07-.32,12.16-.45,18.24-.68,6.09.13,12.18.35,18.26.54,6.06.56,12.13,1,18.18,1.66l9,1.39,4.51.69,2.25.35,1.13.17,1.11.24c6,1.28,11.91,2.46,17.81,3.93a307.7,307.7,0,0,1,67.7,26A425.5,425.5,0,0,0,778.05,665c-1.45-.38-2.93-.59-4.4-.87l-4.42-.79-8.82-1.65-1.1-.21-1.11-.14-2.23-.29-4.44-.58-8.89-1.15-17.86-1.45-17.91-.4c-6,.18-11.94.25-17.9.52-6,.53-11.91.94-17.86,1.55l-8.89,1.17-4.44.58-2.23.29c-.74.1-1.47.27-2.2.4l-8.82,1.64-4.42.8-2.22.39c-.73.16-1.45.34-2.18.51A456.35,456.35,0,0,0,566.82,686.46Z" transform="translate(-476 -197.23)"></path><path d="M573.82,764.46a323.18,323.18,0,0,1,67.82-25.64c.74-.2,1.47-.42,2.2-.6l2.23-.49,4.44-1,8.92-1.9c.74-.14,1.48-.33,2.23-.45l2.26-.35,4.5-.7,9-1.4c1.5-.27,3-.38,4.53-.52l4.54-.42,9.1-.82c6.07-.32,12.16-.45,18.24-.68,6.09.13,12.18.35,18.26.54,6.06.56,12.13,1,18.18,1.66l9,1.39,4.51.69,2.25.35,1.13.17,1.11.24c6,1.28,11.91,2.46,17.81,3.93a307.7,307.7,0,0,1,67.7,26A425.5,425.5,0,0,0,785.05,743c-1.45-.38-2.93-.59-4.4-.87l-4.42-.79-8.82-1.65-1.1-.21-1.11-.14-2.23-.29-4.44-.58-8.89-1.15-17.86-1.45-17.91-.4c-6,.18-11.94.25-17.9.52-6,.53-11.91.94-17.86,1.55l-8.89,1.17-4.44.58-2.23.29c-.74.1-1.47.27-2.2.4l-8.82,1.64-4.42.8-2.22.39c-.73.16-1.45.34-2.18.51A456.35,456.35,0,0,0,573.82,764.46Z" transform="translate(-476 -197.23)"></path><path d="M565.82,842.46a323.18,323.18,0,0,1,67.82-25.64c.74-.2,1.47-.42,2.2-.6l2.23-.49,4.44-1,8.92-1.9c.74-.14,1.48-.33,2.23-.45l2.26-.35,4.5-.7,9-1.4c1.5-.27,3-.38,4.53-.52l4.54-.42,9.1-.82c6.07-.32,12.16-.45,18.24-.68,6.09.13,12.18.35,18.26.54,6.06.56,12.13,1,18.18,1.66l9,1.39,4.51.69,2.25.35,1.13.17,1.11.24c6,1.28,11.91,2.46,17.81,3.93a307.7,307.7,0,0,1,67.7,26A425.5,425.5,0,0,0,777.05,821c-1.45-.38-2.93-.59-4.4-.87l-4.42-.79-8.82-1.65-1.1-.21-1.11-.14-2.23-.29-4.44-.58-8.89-1.15-17.86-1.45-17.91-.4c-6,.18-11.94.25-17.9.52-6,.53-11.91.94-17.86,1.55l-8.89,1.17-4.44.58-2.23.29c-.74.1-1.47.27-2.2.4l-8.82,1.64-4.42.8-2.22.39c-.73.16-1.45.34-2.18.51A456.35,456.35,0,0,0,565.82,842.46Z" transform="translate(-476 -197.23)"></path><path d="M930.66,445.48a323.05,323.05,0,0,1,67.83-25.64c.73-.2,1.46-.42,2.19-.6l2.23-.49,4.45-1,8.91-1.9c.75-.14,1.49-.33,2.24-.45l2.25-.35,4.5-.7,9-1.4c1.5-.27,3-.38,4.53-.52l4.55-.42,9.09-.82c6.07-.32,12.16-.45,18.25-.68,6.08.13,12.17.35,18.25.54,6.06.56,12.13,1,18.18,1.66l9,1.39,4.51.69,2.25.35,1.13.17,1.12.24c5.94,1.28,11.91,2.46,17.8,3.93a306.82,306.82,0,0,1,67.7,26,425.5,425.5,0,0,0-68.77-21.42c-1.44-.38-2.93-.59-4.4-.87l-4.42-.79-8.82-1.65-1.1-.21-1.11-.14-2.22-.29-4.45-.58-8.89-1.15-17.86-1.45-17.91-.4c-6,.18-11.94.25-17.9.52-6,.53-11.91.94-17.85,1.55l-8.89,1.17-4.45.58-2.22.29c-.75.1-1.47.27-2.21.4l-8.82,1.64-4.42.8-2.21.39c-.74.16-1.46.34-2.19.51A455.2,455.2,0,0,0,930.66,445.48Z" transform="translate(-476 -197.23)"></path><path d="M932,523.44A323.47,323.47,0,0,1,999.8,497.8c.73-.2,1.46-.42,2.2-.6l2.22-.49,4.45-1,8.92-1.9c.74-.14,1.48-.33,2.23-.45l2.25-.35,4.51-.7,9-1.4c1.5-.27,3-.38,4.53-.52l4.54-.42,9.09-.82c6.08-.32,12.17-.45,18.25-.68,6.09.13,12.17.35,18.26.54,6.06.56,12.13,1,18.18,1.67l9,1.38,4.51.69,2.25.35,1.13.18,1.11.23c6,1.28,11.91,2.46,17.8,3.93a307.31,307.31,0,0,1,67.7,26A425.08,425.08,0,0,0,1143.21,502c-1.45-.38-2.93-.59-4.4-.87l-4.42-.79-8.82-1.65-1.1-.21-1.11-.14-2.23-.29-4.44-.58-8.89-1.15-17.86-1.45-17.91-.4c-6,.18-11.94.25-17.9.53-6,.52-11.92.93-17.86,1.54l-8.89,1.17-4.44.58-2.23.29c-.74.1-1.47.27-2.2.4l-8.83,1.64-4.42.8-2.21.39c-.73.16-1.46.34-2.18.51A456.82,456.82,0,0,0,932,523.44Z" transform="translate(-476 -197.23)"></path><path d="M931,601.44A323.47,323.47,0,0,1,998.8,575.8c.73-.2,1.46-.42,2.2-.6l2.22-.49,4.45-1,8.92-1.9c.74-.14,1.48-.33,2.23-.45l2.25-.35,4.51-.7,9-1.4c1.5-.27,3-.38,4.53-.52l4.54-.42,9.09-.82c6.08-.32,12.17-.45,18.25-.68,6.09.13,12.17.35,18.26.54,6.06.56,12.13,1,18.18,1.67l9,1.38,4.51.69,2.25.35,1.13.18,1.11.23c6,1.28,11.91,2.46,17.8,3.93a307.31,307.31,0,0,1,67.7,26A425.08,425.08,0,0,0,1142.21,580c-1.45-.38-2.93-.59-4.4-.87l-4.42-.79-8.82-1.65-1.1-.21-1.11-.14-2.23-.29-4.44-.58-8.89-1.15-17.86-1.45-17.91-.4c-6,.18-11.94.25-17.9.53-6,.52-11.92.93-17.86,1.54l-8.89,1.17-4.44.58-2.23.29c-.74.1-1.47.27-2.2.4l-8.83,1.64-4.42.8-2.21.39c-.73.16-1.46.34-2.18.51A456.82,456.82,0,0,0,931,601.44Z" transform="translate(-476 -197.23)"></path><path d="M932,679.44A323.47,323.47,0,0,1,999.8,653.8c.73-.2,1.46-.42,2.2-.6l2.22-.49,4.45-1,8.92-1.9c.74-.14,1.48-.33,2.23-.45l2.25-.35,4.51-.7,9-1.4c1.5-.27,3-.38,4.53-.52l4.54-.42,9.09-.82c6.08-.32,12.17-.45,18.25-.68,6.09.13,12.17.35,18.26.54,6.06.56,12.13,1,18.18,1.67l9,1.38,4.51.69,2.25.35,1.13.18,1.11.23c6,1.28,11.91,2.46,17.8,3.93a307.31,307.31,0,0,1,67.7,26A425.08,425.08,0,0,0,1143.21,658c-1.45-.38-2.93-.59-4.4-.87l-4.42-.79-8.82-1.65-1.1-.21-1.11-.14-2.23-.29-4.44-.58-8.89-1.15-17.86-1.45-17.91-.4c-6,.18-11.94.25-17.9.53-6,.52-11.92.93-17.86,1.54l-8.89,1.17-4.44.58-2.23.29c-.74.1-1.47.27-2.2.4l-8.83,1.64-4.42.8-2.21.39c-.73.16-1.46.34-2.18.51A456.82,456.82,0,0,0,932,679.44Z" transform="translate(-476 -197.23)"></path><path d="M939,757.44a323.47,323.47,0,0,1,67.83-25.64c.73-.2,1.46-.42,2.2-.6l2.22-.49,4.45-1,8.92-1.9c.74-.14,1.48-.33,2.23-.45l2.25-.35,4.51-.7,9-1.4c1.5-.27,3-.38,4.53-.52l4.54-.42,9.09-.82c6.08-.32,12.17-.45,18.25-.68,6.09.13,12.17.35,18.26.54,6.06.56,12.13,1,18.18,1.67l9,1.38,4.51.69,2.25.35,1.13.18,1.11.23c6,1.28,11.91,2.46,17.8,3.93a307.31,307.31,0,0,1,67.7,26A425.08,425.08,0,0,0,1150.21,736c-1.45-.38-2.93-.59-4.4-.87l-4.42-.79-8.82-1.65-1.1-.21-1.11-.14-2.23-.29-4.44-.58-8.89-1.15-17.86-1.45-17.91-.4c-6,.18-11.94.25-17.9.53-6,.52-11.92.93-17.86,1.54l-8.89,1.17-4.44.58-2.23.29c-.74.1-1.47.27-2.2.4l-8.83,1.64-4.42.8-2.21.39c-.73.16-1.46.34-2.18.51A456.82,456.82,0,0,0,939,757.44Z" transform="translate(-476 -197.23)"></path><path d="M931,835.44A323.47,323.47,0,0,1,998.8,809.8c.73-.2,1.46-.42,2.2-.6l2.22-.49,4.45-1,8.92-1.9c.74-.14,1.48-.33,2.23-.45l2.25-.35,4.51-.7,9-1.4c1.5-.27,3-.38,4.53-.52l4.54-.42,9.09-.82c6.08-.32,12.17-.45,18.25-.68,6.09.13,12.17.35,18.26.54,6.06.56,12.13,1,18.18,1.67l9,1.38,4.51.69,2.25.35,1.13.18,1.11.23c6,1.28,11.91,2.46,17.8,3.93a307.31,307.31,0,0,1,67.7,26A425.08,425.08,0,0,0,1142.21,814c-1.45-.38-2.93-.59-4.4-.87l-4.42-.79-8.82-1.65-1.1-.21-1.11-.14-2.23-.29-4.44-.58-8.89-1.15-17.86-1.45-17.91-.4c-6,.18-11.94.25-17.9.53-6,.52-11.92.93-17.86,1.54l-8.89,1.17-4.44.58-2.23.29c-.74.1-1.47.27-2.2.4l-8.83,1.64-4.42.8-2.21.39c-.73.16-1.46.34-2.18.51A456.82,456.82,0,0,0,931,835.44Z" transform="translate(-476 -197.23)"></path><path class="cls-1" d="M1076.81,636.23c-76,0-148.57-14.24-210-41.19l-2.79-1.23L861.27,595c-47.52,20.44-109.13,31.57-147.62,37,30-17.7,70.71-46.47,78.35-75.82l1.13-4.37-3.5-2.84c-46.33-37.53-70.82-82-70.82-128.72,0-119.1,160.6-216,358-216s358,96.9,358,216S1274.21,636.23,1076.81,636.23Z" transform="translate(-476 -197.23)"></path><path d="M1076.81,211.23c48.09,0,94.71,5.75,138.57,17.08,42.13,10.89,79.88,26.43,112.22,46.19,31.85,19.45,56.75,42,74,66.9,17.39,25.11,26.2,51.63,26.2,78.83s-8.81,53.73-26.2,78.84c-17.26,24.94-42.16,47.45-74,66.9-32.34,19.76-70.09,35.3-112.22,46.18-43.86,11.34-90.48,17.08-138.57,17.08-75,0-146.64-14-207.15-40.6l-5.57-2.45-5.59,2.41c-35,15-77.89,25-113.21,31.28,30.43-21.62,48.4-42.43,53.48-62l2.27-8.73-7-5.68c-22-17.79-39-37.35-50.57-58.13-11.71-21-17.65-42.92-17.65-65.15,0-27.2,8.81-53.72,26.19-78.83,17.27-24.94,42.17-47.45,74-66.9,32.34-19.76,70.1-35.3,112.23-46.19,43.85-11.33,90.47-17.08,138.57-17.08m0-14c-201.59,0-365,99.84-365,223,0,50.37,27.32,96.83,73.41,134.16-11.41,43.84-107.41,88.84-107.41,88.84s110-9,186.23-41.78c59.9,26.3,133.37,41.78,212.77,41.78,201.58,0,365-99.84,365-223s-163.42-223-365-223Z" transform="translate(-476 -197.23)"></path><polygon class="cls-2" points="405 134.77 435.33 167.02 475.37 185.9 454.07 224.71 448.49 268.63 405 260.37 361.51 268.63 355.93 224.71 334.63 185.9 374.67 167.02 405 134.77"></polygon><polygon class="cls-2" points="762.83 134.92 793.16 167.17 833.2 186.05 811.9 224.86 806.32 268.78 762.83 260.51 719.34 268.78 713.76 224.86 692.46 186.05 732.5 167.17 762.83 134.92"></polygon><polygon class="cls-2" points="583.76 62.77 630.44 112.4 692.07 141.46 659.29 201.19 650.7 268.78 583.76 256.06 516.83 268.78 508.24 201.19 475.46 141.46 537.09 112.4 583.76 62.77"></polygon><line class="cls-3" x1="398" y1="321.77" x2="784" y2="321.77"></line><line class="cls-3" x1="418" y1="351.77" x2="768" y2="351.77"></line><line class="cls-3" x1="444" y1="381.77" x2="740" y2="381.77"></line></svg> 